<svg xmlns="http://www.w3.org/2000/svg" version="1.1" xmlns:xlink="http://www.w3.org/1999/xlink" xmlns:svgjs="http://svgjs.dev/svgjs" width="1500" height="428" viewBox="0 0 1500 428"><g transform="matrix(1,0,0,1,0.15999999999996817,0.7780000000000769)"><svg viewBox="0 0 375 107" data-background-color="#ffffff" preserveAspectRatio="xMidYMid meet" height="428" width="1500" xmlns="http://www.w3.org/2000/svg" xmlns:xlink="http://www.w3.org/1999/xlink"><g id="tight-bounds" transform="matrix(1,0,0,1,-0.03976000000000113,-0.1944300000000112)"><svg viewBox="0 0 375.07953 107.38851000000003" height="107.38851000000003" width="375.07953"><g><svg></svg></g><g><svg viewBox="0 0 375.07953 107.38851000000003" height="107.38851000000003" width="375.07953"><g transform="matrix(1,0,0,1,-10.22024,-71.47907000000001)"><path d="M10.22 175.721v-104.242h375.08v104.242h-107.875l0-3.323h104.552v-97.596h-368.434v97.596h104.552l0 3.323z" fill="#ff5858" fill-rule="nonzero" stroke="none" stroke-width="1" stroke-linecap="butt" stroke-linejoin="miter" stroke-miterlimit="10" stroke-dasharray="" stroke-dashoffset="0" font-family="none" font-weight="none" font-size="none" text-anchor="none" style="mix-blend-mode: normal" data-fill-palette-color="tertiary"></path><g><path d="M135.876 175.087l2.327-9.984h5.176v0.368h-1.066v12.834h1.066v0.369h-5.913v-0.369h1.066v-12.117h-0.077l-2.908 12.486h-2.424l-3.412-12.544h-0.078v12.175h1.067v0.369h-2.637v-0.369h1.066v-12.834h-1.066v-0.368h5.235zM150.32 174.854v0-1.647c0-1.254-0.067-2.169-0.202-2.746-0.137-0.574-0.451-0.861-0.942-0.86v0c-0.284 0-0.514 0.08-0.69 0.24-0.173 0.163-0.299 0.432-0.377 0.806v0c-0.116 0.582-0.174 1.467-0.174 2.656v0 1.513c0 1.409 0.043 2.255 0.128 2.539 0.083 0.284 0.169 0.517 0.26 0.698v0c0.142 0.31 0.42 0.465 0.833 0.466v0c0.504 0 0.834-0.291 0.989-0.873v0c0.116-0.414 0.174-1.344 0.175-2.792zM149.118 178.868c-1.616 0-2.837-0.414-3.665-1.241-0.827-0.827-1.241-2.014-1.24-3.56 0-1.543 0.443-2.732 1.33-3.567 0.884-0.832 2.127-1.249 3.73-1.248 1.603 0 2.798 0.384 3.586 1.151 0.788 0.77 1.183 1.944 1.183 3.521v0c0 3.296-1.641 4.944-4.924 4.944zM158.52 174.661c0 1.357 0.071 2.258 0.214 2.702 0.142 0.447 0.405 0.671 0.787 0.671 0.38 0 0.71-0.168 0.988-0.504 0.277-0.336 0.415-0.834 0.415-1.493v0-4.226c0-0.556-0.11-1.028-0.329-1.416-0.22-0.388-0.543-0.582-0.97-0.581-0.427 0-0.717 0.284-0.872 0.853-0.155 0.569-0.233 1.564-0.233 2.985v0zM165.48 178.674h-4.304l-0.213-1.357c-0.439 1.034-1.331 1.551-2.675 1.551v0c-1.112 0-1.974-0.401-2.587-1.202-0.615-0.801-0.923-1.997-0.922-3.587v0c0-3.218 1.28-4.827 3.838-4.827v0c1.137 0 1.887 0.317 2.249 0.949v0-5.719h-1.182v-0.349h4.846v14.192h0.95zM171.083 178.868c-1.667 0-2.917-0.43-3.749-1.292-0.835-0.858-1.252-2.054-1.253-3.586 0-1.53 0.469-2.703 1.408-3.517 0.936-0.814 2.127-1.221 3.575-1.221v0c2.934 0 4.343 1.473 4.226 4.42v0h-5.467v0.756c0 1.267 0.162 2.223 0.485 2.869 0.323 0.646 0.885 0.969 1.686 0.97v0c1.499 0 2.482-0.801 2.947-2.404v0l0.349 0.058c-0.246 0.931-0.688 1.654-1.326 2.171-0.641 0.517-1.601 0.775-2.881 0.776zM169.842 172.334v0.95h1.997v-0.95c0-1.047-0.061-1.762-0.182-2.144-0.124-0.38-0.37-0.57-0.737-0.57-0.37 0-0.641 0.203-0.814 0.609-0.176 0.408-0.264 1.11-0.264 2.105zM182.464 169.988v0c-0.478 0-0.898 0.31-1.261 0.931-0.362 0.62-0.543 1.357-0.542 2.21v0 5.196h1.376v0.349h-6.049v-0.349h1.066v-8.531h-1.066v-0.349h4.673v1.862c0.168-0.659 0.491-1.167 0.969-1.524 0.478-0.354 1.021-0.531 1.628-0.531 0.607 0 1.102 0.171 1.485 0.511 0.38 0.344 0.57 0.828 0.57 1.454 0 0.628-0.142 1.11-0.426 1.447-0.284 0.336-0.72 0.504-1.307 0.504-0.589 0-1.022-0.194-1.299-0.582-0.279-0.388-0.315-0.924-0.108-1.609v0h0.698c0.323-0.659 0.187-0.989-0.407-0.989zM185.624 169.794v-0.349h4.672v1.784c0.207-0.595 0.523-1.073 0.95-1.435 0.427-0.362 1.073-0.543 1.939-0.542v0c2.003 0 3.005 1.079 3.005 3.237v0 5.836h1.085v0.349h-5.486v-0.349h0.795v-6.301c0-0.775-0.052-1.277-0.155-1.505-0.103-0.225-0.291-0.337-0.563-0.337v0c-0.414 0-0.778 0.271-1.093 0.814-0.318 0.543-0.477 1.202-0.477 1.978v0 5.351h0.834v0.349h-5.506v-0.349h1.066v-8.531zM206.445 169.601v0c-0.569 0-0.976 0.31-1.221 0.93-0.246 0.62-0.368 1.648-0.368 3.083v0 1.008c0 1.28 0.142 2.197 0.426 2.753 0.284 0.556 0.808 0.834 1.571 0.833 0.763 0 1.37-0.259 1.822-0.775 0.452-0.517 0.743-1.105 0.872-1.764v0l0.349 0.038c-0.246 1.112-0.698 1.913-1.357 2.404v0c-0.672 0.504-1.596 0.756-2.772 0.757v0c-1.499 0-2.65-0.405-3.451-1.214-0.801-0.807-1.202-1.989-1.202-3.548 0-1.556 0.456-2.754 1.369-3.594 0.91-0.84 2.179-1.26 3.807-1.26v0c1.15 0 2.029 0.222 2.637 0.666 0.607 0.447 0.911 1.007 0.911 1.679 0 0.672-0.145 1.163-0.434 1.474-0.292 0.31-0.693 0.465-1.202 0.465-0.512 0-0.923-0.136-1.233-0.407-0.31-0.271-0.465-0.672-0.465-1.202v0c0-0.233 0.032-0.465 0.097-0.698v0h0.639c0.09-0.259 0.136-0.491 0.136-0.698v0c0-0.62-0.31-0.931-0.931-0.93zM216.643 174.854v0-1.647c0-1.254-0.067-2.169-0.202-2.746-0.137-0.574-0.451-0.861-0.942-0.86v0c-0.284 0-0.513 0.08-0.686 0.24-0.176 0.163-0.302 0.432-0.38 0.806v0c-0.116 0.582-0.174 1.467-0.175 2.656v0 1.513c0 1.409 0.043 2.255 0.128 2.539 0.083 0.284 0.169 0.517 0.26 0.698v0c0.142 0.31 0.42 0.465 0.834 0.466v0c0.504 0 0.834-0.291 0.989-0.873v0c0.116-0.414 0.174-1.344 0.174-2.792zM215.441 178.868c-1.616 0-2.837-0.414-3.664-1.241-0.827-0.827-1.241-2.014-1.241-3.56 0-1.543 0.443-2.732 1.33-3.567 0.884-0.832 2.127-1.249 3.73-1.248 1.603 0 2.798 0.384 3.587 1.151 0.788 0.77 1.183 1.944 1.182 3.521v0c0 3.296-1.641 4.944-4.924 4.944zM220.947 169.794v-0.349h4.672v1.784c0.207-0.595 0.523-1.073 0.95-1.435 0.427-0.362 1.073-0.543 1.939-0.542v0c2.003 0 3.005 1.079 3.005 3.237v0 5.836h1.086v0.349h-5.487v-0.349h0.795v-6.301c0-0.775-0.052-1.277-0.155-1.505-0.103-0.225-0.291-0.337-0.562-0.337v0c-0.414 0-0.778 0.271-1.094 0.814-0.318 0.543-0.477 1.202-0.477 1.978v0 5.351h0.834v0.349h-5.506v-0.349h1.066v-8.531zM238.725 164.017v0c-0.491 0-0.814 0.184-0.969 0.551-0.155 0.37-0.233 0.962-0.233 1.775v0 3.102h2.559v0.349h-2.559v8.531h2.365v0.349h-7.037v-0.349h1.066v-8.531h-1.124v-0.349h1.124v-0.077c0-1.861 0.355-3.274 1.066-4.238 0.711-0.962 1.9-1.442 3.568-1.443v0c1.099 0 1.887 0.216 2.365 0.648 0.478 0.434 0.717 0.936 0.717 1.504 0 0.569-0.149 0.995-0.446 1.28-0.297 0.284-0.691 0.427-1.182 0.426-0.491 0-0.869-0.127-1.133-0.38-0.266-0.251-0.399-0.542-0.399-0.872 0-0.328 0.039-0.648 0.116-0.958v0h0.737c0.259-0.879 0.058-1.318-0.601-1.318zM246.15 174.854v0-1.647c0-1.254-0.067-2.169-0.201-2.746-0.137-0.574-0.451-0.861-0.942-0.86v0c-0.284 0-0.513 0.08-0.687 0.24-0.176 0.163-0.302 0.432-0.38 0.806v0c-0.116 0.582-0.174 1.467-0.174 2.656v0 1.513c0 1.409 0.043 2.255 0.128 2.539 0.083 0.284 0.169 0.517 0.26 0.698v0c0.142 0.31 0.42 0.465 0.833 0.466v0c0.504 0 0.834-0.291 0.989-0.873v0c0.116-0.414 0.174-1.344 0.174-2.792zM244.948 178.868c-1.616 0-2.837-0.414-3.664-1.241-0.827-0.827-1.241-2.014-1.241-3.56 0-1.543 0.443-2.732 1.33-3.567 0.884-0.832 2.127-1.249 3.73-1.248 1.603 0 2.798 0.384 3.587 1.151 0.788 0.77 1.183 1.944 1.183 3.521v0c0 3.296-1.641 4.944-4.925 4.944zM256.891 169.988v0c-0.478 0-0.898 0.31-1.26 0.931-0.362 0.62-0.543 1.357-0.543 2.21v0 5.196h1.376v0.349h-6.048v-0.349h1.066v-8.531h-1.066v-0.349h4.672v1.862c0.168-0.659 0.491-1.167 0.969-1.524 0.478-0.354 1.021-0.531 1.629-0.531 0.607 0 1.102 0.171 1.485 0.511 0.38 0.344 0.57 0.828 0.57 1.454 0 0.628-0.142 1.11-0.427 1.447-0.284 0.336-0.72 0.504-1.306 0.504-0.589 0-1.022-0.194-1.299-0.582-0.279-0.388-0.315-0.924-0.109-1.609v0h0.698c0.323-0.659 0.187-0.989-0.407-0.989zM260.982 175.901v0-6.107h-1.067v-0.349h1.067v-2.501l3.606-0.891v3.392h2.52v0.349h-2.52v6.534c0 0.607 0.061 1.053 0.182 1.338 0.124 0.284 0.38 0.427 0.768 0.426 0.388 0 0.728-0.194 1.019-0.582 0.29-0.388 0.48-0.918 0.57-1.589v0l0.33 0.038c-0.103 0.892-0.388 1.599-0.853 2.121-0.465 0.525-1.234 0.787-2.307 0.788-1.073 0-1.893-0.213-2.462-0.64-0.569-0.427-0.853-1.202-0.853-2.327z" fill="#ff3f3f" fill-rule="nonzero" stroke="none" stroke-width="1" stroke-linecap="butt" stroke-linejoin="miter" stroke-miterlimit="10" stroke-dasharray="" stroke-dashoffset="0" font-family="none" font-weight="none" font-size="none" text-anchor="none" style="mix-blend-mode: normal" data-fill-palette-color="secondary"></path></g></g><g transform="matrix(1,0,0,1,29.33176499999999,35.27172730955262)"><svg viewBox="0 0 316.416 36.84505538089479" height="36.84505538089479" width="316.416"><g><svg viewBox="0 0 316.416 36.84505538089479" height="36.84505538089479" width="316.416"><g><svg viewBox="0 0 316.416 36.84505538089479" height="36.84505538089479" width="316.416"><g><svg viewBox="0 0 316.416 36.84505538089479" height="36.84505538089479" width="316.416"><g id="textblocktransform"><svg viewBox="0 0 316.416 36.84505538089479" height="36.84505538089479" width="316.416" id="textblock"><g><svg viewBox="0 0 316.416 36.84505538089479" height="36.84505538089479" width="316.416"><g transform="matrix(1,0,0,1,0,0)"><svg width="316.416" viewBox="4.25 -37 413.46 48.15" height="36.84505538089479" data-palette-color="#ff3535"><path d="M8.75 0L4.25 0 4.25-35.5 27.7-35.5 27.7-31.5 8.75-31.5 8.75-19.65 24.7-19.65 24.7-15.9 8.75-15.9 8.75 0ZM44.6-26.25L44.6-22.25Q41.3-22.2 38.77-20.58 36.25-18.95 35.2-16.1L35.2-16.1 35.2 0 30.8 0 30.8-26.1 34.9-26.1 34.9-20.05Q36.25-22.75 38.47-24.43 40.7-26.1 43.15-26.3L43.15-26.3Q43.65-26.3 44-26.3 44.35-26.3 44.6-26.25L44.6-26.25ZM46.9-7.55L46.9-7.55Q46.9-10.05 48.32-11.88 49.75-13.7 52.25-14.7 54.75-15.7 58.05-15.7L58.05-15.7Q59.8-15.7 61.75-15.43 63.7-15.15 65.2-14.6L65.2-14.6 65.2-16.5Q65.2-19.5 63.4-21.23 61.6-22.95 58.3-22.95L58.3-22.95Q56.15-22.95 54.17-22.18 52.2-21.4 50-19.95L50-19.95 48.4-23.05Q50.95-24.8 53.5-25.68 56.05-26.55 58.8-26.55L58.8-26.55Q63.8-26.55 66.7-23.78 69.6-21 69.6-16.05L69.6-16.05 69.6-5Q69.6-4.2 69.92-3.83 70.25-3.45 71-3.4L71-3.4 71 0Q70.35 0.1 69.87 0.15 69.4 0.2 69.1 0.2L69.1 0.2Q67.55 0.2 66.77-0.65 66-1.5 65.9-2.45L65.9-2.45 65.8-4.1Q64.1-1.9 61.35-0.7 58.6 0.5 55.9 0.5L55.9 0.5Q53.3 0.5 51.25-0.58 49.2-1.65 48.05-3.48 46.9-5.3 46.9-7.55ZM63.9-5.7L63.9-5.7Q64.5-6.4 64.85-7.13 65.2-7.85 65.2-8.35L65.2-8.35 65.2-11.6Q63.65-12.2 61.95-12.53 60.25-12.85 58.6-12.85L58.6-12.85Q55.25-12.85 53.17-11.53 51.1-10.2 51.1-7.9L51.1-7.9Q51.1-6.65 51.77-5.48 52.45-4.3 53.77-3.55 55.1-2.8 57.05-2.8L57.05-2.8Q59.1-2.8 60.95-3.63 62.8-4.45 63.9-5.7ZM87.04 0.3L87.04 0.3Q84.39 0.3 82.17-0.78 79.94-1.85 78.34-3.73 76.74-5.6 75.87-8 74.99-10.4 74.99-13L74.99-13Q74.99-15.75 75.87-18.2 76.74-20.65 78.37-22.53 79.99-24.4 82.19-25.48 84.39-26.55 87.09-26.55L87.09-26.55Q90.34-26.55 92.77-24.95 95.19-23.35 96.84-20.9L96.84-20.9 96.84-26.1 100.74-26.1 100.74-0.3Q100.74 3.4 98.97 5.95 97.19 8.5 94.17 9.83 91.14 11.15 87.44 11.15L87.44 11.15Q83.04 11.15 80.24 9.6 77.44 8.05 75.59 5.4L75.59 5.4 78.14 3.15Q79.69 5.45 82.17 6.6 84.64 7.75 87.44 7.75L87.44 7.75Q89.84 7.75 91.87 6.88 93.89 6 95.12 4.2 96.34 2.4 96.34-0.3L96.34-0.3 96.34-4.9Q94.89-2.5 92.37-1.1 89.84 0.3 87.04 0.3ZM88.39-3.3L88.39-3.3Q89.79-3.3 91.09-3.8 92.39-4.3 93.49-5.13 94.59-5.95 95.34-7 96.09-8.05 96.34-9.15L96.34-9.15 96.34-16.65Q95.64-18.45 94.34-19.83 93.04-21.2 91.39-21.98 89.74-22.75 87.99-22.75L87.99-22.75Q85.99-22.75 84.42-21.9 82.84-21.05 81.74-19.63 80.64-18.2 80.04-16.45 79.44-14.7 79.44-12.9L79.44-12.9Q79.44-10.95 80.14-9.22 80.84-7.5 82.04-6.15 83.24-4.8 84.89-4.05 86.54-3.3 88.39-3.3ZM121.64-26.25L121.64-22.25Q118.34-22.2 115.82-20.58 113.29-18.95 112.24-16.1L112.24-16.1 112.24 0 107.84 0 107.84-26.1 111.94-26.1 111.94-20.05Q113.29-22.75 115.52-24.43 117.74-26.1 120.19-26.3L120.19-26.3Q120.69-26.3 121.04-26.3 121.39-26.3 121.64-26.25L121.64-26.25ZM123.94-7.55L123.94-7.55Q123.94-10.05 125.36-11.88 126.79-13.7 129.29-14.7 131.79-15.7 135.09-15.7L135.09-15.7Q136.84-15.7 138.79-15.43 140.74-15.15 142.24-14.6L142.24-14.6 142.24-16.5Q142.24-19.5 140.44-21.23 138.64-22.95 135.34-22.95L135.34-22.95Q133.19-22.95 131.21-22.18 129.24-21.4 127.04-19.95L127.04-19.95 125.44-23.05Q127.99-24.8 130.54-25.68 133.09-26.55 135.84-26.55L135.84-26.55Q140.84-26.55 143.74-23.78 146.64-21 146.64-16.05L146.64-16.05 146.64-5Q146.64-4.2 146.96-3.83 147.29-3.45 148.04-3.4L148.04-3.4 148.04 0Q147.39 0.1 146.91 0.15 146.44 0.2 146.14 0.2L146.14 0.2Q144.59 0.2 143.81-0.65 143.04-1.5 142.94-2.45L142.94-2.45 142.84-4.1Q141.14-1.9 138.39-0.7 135.64 0.5 132.94 0.5L132.94 0.5Q130.34 0.5 128.29-0.58 126.24-1.65 125.09-3.48 123.94-5.3 123.94-7.55ZM140.94-5.7L140.94-5.7Q141.54-6.4 141.89-7.13 142.24-7.85 142.24-8.35L142.24-8.35 142.24-11.6Q140.69-12.2 138.99-12.53 137.29-12.85 135.64-12.85L135.64-12.85Q132.29-12.85 130.21-11.53 128.14-10.2 128.14-7.9L128.14-7.9Q128.14-6.65 128.81-5.48 129.49-4.3 130.81-3.55 132.14-2.8 134.09-2.8L134.09-2.8Q136.14-2.8 137.99-3.63 139.84-4.45 140.94-5.7ZM176.34-15.6L176.34 0 171.94 0 171.94-14.6Q171.94-18.75 170.66-20.68 169.39-22.6 166.79-22.6L166.79-22.6Q164.99-22.6 163.21-21.7 161.44-20.8 160.06-19.28 158.69-17.75 158.09-15.75L158.09-15.75 158.09 0 153.69 0 153.69-26.1 157.69-26.1 157.69-20.5Q158.74-22.35 160.39-23.7 162.04-25.05 164.14-25.8 166.24-26.55 168.54-26.55L168.54-26.55Q170.79-26.55 172.31-25.73 173.84-24.9 174.71-23.43 175.59-21.95 175.96-19.95 176.34-17.95 176.34-15.6L176.34-15.6ZM194.73 0.5L194.73 0.5Q191.78 0.5 189.36-0.58 186.93-1.65 185.16-3.55 183.38-5.45 182.41-7.9 181.43-10.35 181.43-13.1L181.43-13.1Q181.43-16.8 183.08-19.85 184.73-22.9 187.73-24.73 190.73-26.55 194.68-26.55L194.68-26.55Q198.53-26.55 201.41-24.83 204.28-23.1 205.68-20.2L205.68-20.2 201.38-18.85Q200.38-20.7 198.58-21.73 196.78-22.75 194.58-22.75L194.58-22.75Q192.18-22.75 190.21-21.5 188.23-20.25 187.08-18.07 185.93-15.9 185.93-13.1L185.93-13.1Q185.93-10.35 187.11-8.13 188.28-5.9 190.26-4.6 192.23-3.3 194.63-3.3L194.63-3.3Q196.18-3.3 197.61-3.85 199.03-4.4 200.11-5.33 201.18-6.25 201.58-7.35L201.58-7.35 205.88-6.05Q205.08-4.15 203.46-2.68 201.83-1.2 199.61-0.35 197.38 0.5 194.73 0.5ZM222.18 0.5L222.18 0.5Q219.23 0.5 216.81-0.58 214.38-1.65 212.61-3.53 210.83-5.4 209.86-7.85 208.88-10.3 208.88-13.05L208.88-13.05Q208.88-16.75 210.58-19.8 212.28-22.85 215.31-24.7 218.33-26.55 222.23-26.55L222.23-26.55Q226.18-26.55 229.11-24.68 232.03-22.8 233.66-19.78 235.28-16.75 235.28-13.25L235.28-13.25Q235.28-12.75 235.26-12.28 235.23-11.8 235.18-11.55L235.18-11.55 213.53-11.55Q213.73-9 214.96-7.03 216.18-5.05 218.13-3.93 220.08-2.8 222.33-2.8L222.33-2.8Q224.73-2.8 226.86-4 228.98-5.2 229.78-7.15L229.78-7.15 233.58-6.1Q232.73-4.2 231.06-2.7 229.38-1.2 227.11-0.35 224.83 0.5 222.18 0.5ZM213.38-14.6L213.38-14.6 231.18-14.6Q230.98-17.15 229.73-19.1 228.48-21.05 226.53-22.15 224.58-23.25 222.23-23.25L222.23-23.25Q219.93-23.25 217.98-22.15 216.03-21.05 214.81-19.1 213.58-17.15 213.38-14.6ZM258.03 0L253.53 0 253.53-35.5 268.33-35.5Q270.68-35.5 272.63-34.52 274.58-33.55 276.03-31.93 277.48-30.3 278.28-28.28 279.08-26.25 279.08-24.15L279.08-24.15Q279.08-21.25 277.78-18.63 276.48-16 274.13-14.38 271.78-12.75 268.63-12.75L268.63-12.75 258.03-12.75 258.03 0ZM258.03-31.5L258.03-16.75 268.38-16.75Q270.23-16.75 271.6-17.75 272.98-18.75 273.75-20.45 274.53-22.15 274.53-24.15L274.53-24.15Q274.53-26.25 273.63-27.93 272.73-29.6 271.28-30.55 269.83-31.5 268.08-31.5L268.08-31.5 258.03-31.5ZM295.02 0.5L295.02 0.5Q292.07 0.5 289.65-0.58 287.22-1.65 285.45-3.53 283.67-5.4 282.7-7.85 281.72-10.3 281.72-13.05L281.72-13.05Q281.72-16.75 283.42-19.8 285.12-22.85 288.15-24.7 291.17-26.55 295.07-26.55L295.07-26.55Q299.02-26.55 301.95-24.68 304.87-22.8 306.5-19.78 308.12-16.75 308.12-13.25L308.12-13.25Q308.12-12.75 308.1-12.28 308.07-11.8 308.02-11.55L308.02-11.55 286.37-11.55Q286.57-9 287.8-7.03 289.02-5.05 290.97-3.93 292.92-2.8 295.17-2.8L295.17-2.8Q297.57-2.8 299.7-4 301.82-5.2 302.62-7.15L302.62-7.15 306.42-6.1Q305.57-4.2 303.9-2.7 302.22-1.2 299.95-0.35 297.67 0.5 295.02 0.5ZM286.22-14.6L286.22-14.6 304.02-14.6Q303.82-17.15 302.57-19.1 301.32-21.05 299.37-22.15 297.42-23.25 295.07-23.25L295.07-23.25Q292.77-23.25 290.82-22.15 288.87-21.05 287.65-19.1 286.42-17.15 286.22-14.6ZM326.82-26.25L326.82-22.25Q323.52-22.2 321-20.58 318.47-18.95 317.42-16.1L317.42-16.1 317.42 0 313.02 0 313.02-26.1 317.12-26.1 317.12-20.05Q318.47-22.75 320.7-24.43 322.92-26.1 325.37-26.3L325.37-26.3Q325.87-26.3 326.22-26.3 326.57-26.3 326.82-26.25L326.82-26.25ZM336.97 0L332.57 0 332.57-22.65 329.02-22.65 329.02-26.1 332.57-26.1 332.57-26.65Q332.57-29.85 333.54-32.18 334.52-34.5 336.32-35.75 338.12-37 340.57-37L340.57-37Q342.12-37 343.62-36.58 345.12-36.15 346.32-35.4L346.32-35.4 345.22-32.15Q344.52-32.65 343.49-32.95 342.47-33.25 341.47-33.25L341.47-33.25Q339.32-33.25 338.14-31.58 336.97-29.9 336.97-26.8L336.97-26.8 336.97-26.1 343.92-26.1 343.92-22.65 336.97-22.65 336.97 0ZM348.07-10.45L348.07-10.45 348.07-26.1 352.47-26.1 352.47-11.3Q352.47-7.3 353.87-5.3 355.27-3.3 358.02-3.3L358.02-3.3Q359.82-3.3 361.49-4.08 363.17-4.85 364.52-6.3 365.87-7.75 366.62-9.75L366.62-9.75 366.62-26.1 371.02-26.1 371.02-5Q371.02-4.2 371.34-3.83 371.67-3.45 372.42-3.4L372.42-3.4 372.42 0Q371.67 0.1 371.24 0.13 370.82 0.15 370.42 0.15L370.42 0.15Q369.17 0.15 368.27-0.63 367.37-1.4 367.32-2.55L367.32-2.55 367.22-5.6Q365.52-2.7 362.64-1.1 359.77 0.5 356.37 0.5L356.37 0.5Q352.27 0.5 350.17-2.27 348.07-5.05 348.07-10.45ZM417.71-15.6L417.71 0 413.31 0 413.31-14.6Q413.31-18.7 411.99-20.65 410.66-22.6 408.06-22.6L408.06-22.6Q405.41-22.6 403.26-20.68 401.11-18.75 400.21-15.7L400.21-15.7 400.21 0 395.81 0 395.81-14.6Q395.81-18.75 394.51-20.68 393.21-22.6 390.61-22.6L390.61-22.6Q388.01-22.6 385.84-20.73 383.66-18.85 382.76-15.75L382.76-15.75 382.76 0 378.36 0 378.36-26.1 382.36-26.1 382.36-20.5Q383.96-23.4 386.51-24.98 389.06-26.55 392.26-26.55L392.26-26.55Q395.51-26.55 397.46-24.78 399.41-23 399.86-20.2L399.86-20.2Q401.61-23.3 404.11-24.93 406.61-26.55 409.81-26.55L409.81-26.55Q412.06-26.55 413.59-25.73 415.11-24.9 416.01-23.43 416.91-21.95 417.31-19.95 417.71-17.95 417.71-15.6L417.71-15.6Z" opacity="1" transform="matrix(1,0,0,1,0,0)" fill="#ff3535" class="wordmark-text-0" data-fill-palette-color="primary" id="text-0"></path></svg></g></svg></g></svg></g></svg></g><g></g></svg></g></svg></g></svg></g></svg></g><defs></defs></svg><rect width="375.07953" height="107.38851000000003" fill="none" stroke="none" visibility="hidden"></rect></g></svg></g></svg>